<?xml version="1.0" encoding="UTF-8"?>
<svg id="_레이어_2" data-name="레이어 2" xmlns="http://www.w3.org/2000/svg" viewBox="0 0 39.5 52">
  <defs>
    <style>
      .cls-1 {
        fill: none;
        stroke: #222;
        stroke-miterlimit: 10;
        stroke-width: 2px;
      }
    </style>
  </defs>
  <g id="Layer_1" data-name="Layer 1">
    <path class="cls-1" d="m16.86,1.59c-.15-.35-.49-.59-.87-.59h-1.86c-.38,0-.73.23-.87.59l-2.02,5.05c-.31.78-1.43.78-1.74,0L7.48,1.59c-.15-.35-.49-.59-.87-.59h-.93C3.1,1,1,3.1,1,5.69v20.31h37.5V5.69c0-2.59-2.1-4.69-4.69-4.69h-10.3c-.38,0-.73.23-.87.59l-2.02,5.05c-.31.78-1.43.78-1.74,0l-2.02-5.05ZM1,29.12v3.12c0,3.45,2.8,6.25,6.25,6.25h6.25v6.25c0,3.45,2.8,6.25,6.25,6.25s6.25-2.8,6.25-6.25v-6.25h6.25c3.45,0,6.25-2.8,6.25-6.25v-3.12H1Zm18.75,14.06c.86,0,1.56.7,1.56,1.56s-.7,1.56-1.56,1.56-1.56-.7-1.56-1.56.7-1.56,1.56-1.56Z"/>
  </g>
</svg>