<?xml version="1.0" encoding="UTF-8"?>
<svg id="_레이어_2" data-name="레이어 2" xmlns="http://www.w3.org/2000/svg" viewBox="0 0 59.14 52">
  <defs>
    <style>
      .cls-1 {
        fill: none;
        stroke: #222;
        stroke-miterlimit: 10;
        stroke-width: 2px;
      }
    </style>
  </defs>
  <g id="Layer_1" data-name="Layer 1">
    <path class="cls-1" d="m11.71,8.14c0-3.94,3.2-7.14,7.14-7.14h32.14c3.94,0,7.14,3.2,7.14,7.14v35.71c0,3.94-3.2,7.14-7.14,7.14H9.93c-4.93,0-8.93-4-8.93-8.93V11.71c0-1.98,1.6-3.57,3.57-3.57s3.57,1.6,3.57,3.57v30.36c0,.98.8,1.79,1.79,1.79s1.79-.8,1.79-1.79V8.14Zm7.14,2.68v8.93c0,1.48,1.19,2.68,2.68,2.68h12.5c1.48,0,2.68-1.19,2.68-2.68v-8.93c0-1.48-1.19-2.68-2.68-2.68h-12.5c-1.48,0-2.68,1.19-2.68,2.68Zm23.21-.89c0,.98.8,1.79,1.79,1.79h5.36c.98,0,1.79-.8,1.79-1.79s-.8-1.79-1.79-1.79h-5.36c-.98,0-1.79.8-1.79,1.79Zm0,10.71c0,.98.8,1.79,1.79,1.79h5.36c.98,0,1.79-.8,1.79-1.79s-.8-1.79-1.79-1.79h-5.36c-.98,0-1.79.8-1.79,1.79Zm-23.21,10.71c0,.98.8,1.79,1.79,1.79h28.57c.98,0,1.79-.8,1.79-1.79s-.8-1.79-1.79-1.79h-28.57c-.98,0-1.79.8-1.79,1.79Zm0,10.71c0,.98.8,1.79,1.79,1.79h28.57c.98,0,1.79-.8,1.79-1.79s-.8-1.79-1.79-1.79h-28.57c-.98,0-1.79.8-1.79,1.79Z"/>
  </g>
</svg>