<?xml version="1.0" encoding="UTF-8"?>
<svg id="Layer_2" data-name="Layer 2" xmlns="http://www.w3.org/2000/svg" viewBox="0 0 40.74 40.74">
  <g id="Isolation_Mode" data-name="Isolation Mode">
    <g id="close">
      <path d="M39.74,40.74c-.26,0-.51-.1-.71-.29L.29,1.71C-.1,1.32-.1,.68,.29,.29,.68-.1,1.32-.1,1.71,.29L40.45,39.03c.39,.39,.39,1.02,0,1.41-.2,.2-.45,.29-.71,.29Z"/>
      <path d="M1,40.74c-.26,0-.51-.1-.71-.29-.39-.39-.39-1.02,0-1.41L39.03,.29c.39-.39,1.02-.39,1.41,0,.39,.39,.39,1.02,0,1.41L1.71,40.45c-.2,.2-.45,.29-.71,.29Z"/>
    </g>
  </g>
</svg>