<?xml version="1.0" encoding="UTF-8"?>
<svg id="_레이어_2" data-name="레이어 2" xmlns="http://www.w3.org/2000/svg" viewBox="0 0 30 30">
  <defs>
    <style>
      .cls-1 {
        fill: #666;
        stroke-width: 0px;
      }
    </style>
  </defs>
  <g id="menu">
    <path class="cls-1" d="m4.29,0C1.92,0,0,1.92,0,4.29v21.43c0,2.36,1.92,4.29,4.29,4.29h6.58v-9.76h-3.54v-5.24h3.54v-2.26c0-5.83,2.64-8.54,8.37-8.54,1.08,0,2.96.21,3.73.43v4.74c-.4-.04-1.1-.07-1.98-.07-2.81,0-3.9,1.06-3.9,3.83v1.86h5.6l-.96,5.24h-4.64v9.76h8.64c2.36,0,4.29-1.92,4.29-4.29V4.29c0-2.36-1.92-4.29-4.29-4.29H4.29Z"/>
  </g>
</svg>