<?xml version="1.0" encoding="UTF-8"?>
<svg id="_레이어_2" data-name="레이어 2" xmlns="http://www.w3.org/2000/svg" viewBox="0 0 42.67 30">
  <defs>
    <style>
      .cls-1 {
        fill: #666;
        stroke-width: 0px;
      }
    </style>
  </defs>
  <g id="menu">
    <path class="cls-1" d="m41.78,4.7c-.49-1.85-1.94-3.3-3.77-3.8-3.33-.9-16.67-.9-16.67-.9,0,0-13.34,0-16.67.9-1.84.49-3.28,1.95-3.77,3.8-.89,3.35-.89,10.34-.89,10.34,0,0,0,6.98.89,10.34.49,1.85,1.94,3.24,3.77,3.73,3.33.9,16.67.9,16.67.9,0,0,13.34,0,16.67-.9,1.84-.49,3.28-1.89,3.77-3.73.89-3.35.89-10.34.89-10.34,0,0,0-6.98-.89-10.34Zm-24.8,16.68v-12.69l11.15,6.34-11.15,6.34Z"/>
  </g>
</svg>